<svg xmlns="http://www.w3.org/2000/svg" viewBox="0 0 320 240" role="img" aria-labelledby="m05-title m05-desc" data-pose="seated"><title id="m05-title">Meditating pelican</title><desc id="m05-desc">A pelican sits quietly with closed eyes, waiting for a reset announcement.</desc><rect width="320" height="240" rx="12" fill="#f5f6f0"/>


  <g stroke="#263e39" stroke-width="4" stroke-linecap="round" stroke-linejoin="round" transform="translate(0 43)">
    <path d="M149 88c-6-15 0-34 12-42 12-9 27-4 30 8l-10 17c-4 8-1 15 8 24 14 15 9 31-10 36h-28c-22-4-29-16-23-28 4-8 12-13 21-15Z" fill="#98b3a0" fill-opacity=".22" />
    <path d="m189 54 70 9c-20 20-44 24-77 8" fill="#d89958" />
    <path d="m190 63 69 0" stroke-width="3" fill="none" />
    <path d="M167 58q5 5 10 0" stroke-width="3" fill="none" />
    <path d="M139 97q-4 16 18 21m21-25q13 16-9 25" fill="none" />
    <path d="M157 118c-15-11-35-8-35 1s22 17 41 5c18 12 41 4 40-5s-20-12-34-1" fill="#98b3a0" />
    <path d="M157 118q6 5 12 0" stroke-width="3" fill="none" />
    </g>
<ellipse cx="157" cy="204" rx="46" ry="5" fill="#98b3a0" opacity=".2" /></svg>
